<svg xmlns="http://www.w3.org/2000/svg" xmlns:xlink="http://www.w3.org/1999/xlink" zoomAndPan="magnify" preserveAspectRatio="xMidYMid meet" version="1.0" viewBox="82.03 140.46 265.75 84.05"><defs><g/><clipPath id="346add362f"><path d="M 299.304688 140.464844 L 337.554688 140.464844 L 337.554688 218.464844 L 299.304688 218.464844 Z M 299.304688 140.464844 " clip-rule="nonzero"/></clipPath></defs><path stroke-linecap="butt" transform="matrix(0.751064, 0, 0, 0.75, 82.53147, 224.017353)" fill="none" stroke-linejoin="miter" d="M -0.000293291 -0.00230439 L 352.499721 -0.00230439 " stroke="#000000" stroke-width="1" stroke-opacity="1" stroke-miterlimit="4"/><g clip-path="url(#346add362f)"><path fill="#000000" d="M 335.058594 141.085938 C 335.753906 140.761719 336.511719 140.605469 337.265625 140.492188 C 337.367188 140.46875 337.46875 140.488281 337.558594 140.539062 C 337.410156 140.839844 337.164062 141.074219 336.953125 141.328125 C 335.582031 142.886719 334.425781 144.632812 333.488281 146.484375 C 333.246094 146.941406 333.035156 147.417969 332.808594 147.882812 C 331.855469 148.726562 330.847656 149.527344 330.046875 150.527344 C 330.683594 150.074219 331.300781 149.589844 331.933594 149.132812 C 332.09375 149.015625 332.25 148.886719 332.429688 148.796875 C 331.960938 149.882812 331.539062 150.988281 331.179688 152.117188 C 330.878906 153.035156 330.648438 153.972656 330.367188 154.898438 C 329.691406 157.136719 328.816406 159.316406 327.839844 161.445312 C 327.441406 162.339844 326.980469 163.207031 326.605469 164.113281 C 326.144531 165.210938 325.738281 166.34375 325.152344 167.382812 C 324.460938 168.617188 323.40625 169.609375 322.246094 170.398438 C 323.148438 170.050781 323.960938 169.480469 324.613281 168.765625 C 324.960938 168.394531 325.242188 167.964844 325.515625 167.535156 C 325.429688 168.199219 325.214844 168.835938 325.042969 169.476562 C 324.597656 171.042969 324.101562 172.59375 323.570312 174.128906 C 323.277344 174.957031 322.976562 175.785156 322.613281 176.589844 C 322.804688 176.40625 322.992188 176.222656 323.1875 176.042969 C 322.234375 178.488281 321.796875 181.089844 320.878906 183.542969 C 320.515625 184.523438 320.089844 185.480469 319.601562 186.40625 C 319.203125 187.183594 318.671875 187.886719 318.109375 188.550781 C 317.8125 188.890625 317.507812 189.226562 317.171875 189.527344 C 316.683594 189.984375 316.113281 190.339844 315.585938 190.753906 C 314.398438 191.457031 313.238281 192.226562 312.21875 193.160156 C 312.804688 192.738281 313.390625 192.308594 314.042969 192.007812 C 313.324219 192.609375 312.679688 193.296875 312.144531 194.066406 C 312 194.285156 311.808594 194.484375 311.765625 194.75 C 311.730469 194.789062 311.695312 194.828125 311.660156 194.867188 C 311.789062 194.765625 311.957031 194.746094 312.117188 194.726562 C 312.53125 194.652344 312.96875 194.738281 313.320312 194.960938 C 313.6875 195.191406 313.863281 195.644531 313.824219 196.0625 C 313.832031 196.203125 313.742188 196.359375 313.824219 196.492188 C 314.117188 197.003906 314.238281 197.617188 314.121094 198.195312 C 314.035156 198.609375 313.808594 198.980469 313.523438 199.289062 C 313.433594 199.375 313.398438 199.574219 313.234375 199.519531 L 313.234375 199.554688 C 313.042969 199.664062 312.851562 199.773438 312.652344 199.867188 C 312.648438 199.894531 312.640625 199.949219 312.632812 199.980469 C 312.671875 199.976562 312.746094 199.972656 312.785156 199.972656 C 312.628906 199.992188 312.726562 200.132812 312.714844 200.222656 C 312.730469 200.496094 312.558594 200.757812 312.332031 200.894531 C 312.171875 201.003906 311.980469 201.042969 311.796875 201.085938 C 311.71875 202.253906 311.898438 203.460938 312.457031 204.496094 C 312.886719 205.308594 313.546875 205.988281 314.320312 206.480469 C 315.234375 207.066406 316.28125 207.410156 317.339844 207.625 C 317.761719 207.710938 318.179688 207.84375 318.550781 208.070312 C 318.933594 208.316406 319.300781 208.621094 319.484375 209.050781 C 319.820312 209.808594 319.867188 210.667969 319.785156 211.484375 C 319.675781 212.59375 319.359375 213.675781 318.917969 214.699219 C 318.554688 215.523438 318.101562 216.316406 317.527344 217.011719 C 317.886719 217.207031 317.890625 217.855469 317.480469 217.988281 C 314.691406 218.382812 311.863281 218.464844 309.046875 218.453125 C 306.589844 218.441406 304.121094 218.390625 301.691406 217.992188 C 301.289062 217.875 301.273438 217.257812 301.59375 217.035156 C 300.988281 216.347656 300.539062 215.539062 300.171875 214.699219 C 299.78125 213.773438 299.492188 212.796875 299.375 211.796875 C 299.304688 211.148438 299.308594 210.480469 299.46875 209.84375 C 299.570312 209.4375 299.761719 209.058594 299.980469 208.707031 C 300.300781 208.261719 300.789062 207.953125 301.300781 207.777344 C 301.648438 207.65625 302.015625 207.617188 302.367188 207.527344 C 303.386719 207.28125 304.386719 206.898438 305.238281 206.277344 C 305.941406 205.765625 306.527344 205.085938 306.902344 204.300781 C 307.363281 203.351562 307.519531 202.277344 307.46875 201.230469 C 306.277344 201.320312 305.144531 200.398438 304.9375 199.234375 C 304.914062 199.082031 304.902344 198.929688 304.839844 198.789062 C 304.605469 198.199219 304.609375 197.5 304.9375 196.945312 C 305.128906 196.605469 305.445312 196.363281 305.769531 196.160156 C 305.914062 196.074219 305.941406 195.886719 306.066406 195.777344 C 306.5625 195.269531 307.386719 195.128906 308.023438 195.4375 C 307.617188 194.933594 307.09375 194.519531 306.503906 194.25 C 307.304688 194.53125 307.960938 195.128906 308.472656 195.796875 C 308 194.761719 307.234375 193.808594 306.183594 193.320312 C 306.539062 193.410156 306.835938 193.636719 307.128906 193.84375 C 307.640625 194.234375 308.054688 194.738281 308.402344 195.273438 C 308.316406 194.96875 308.253906 194.65625 308.1875 194.347656 C 308.460938 194.820312 308.730469 195.296875 309.046875 195.746094 C 308.785156 195.179688 308.515625 194.617188 308.296875 194.03125 C 308.160156 193.644531 307.972656 193.265625 307.9375 192.851562 C 307.742188 191.351562 307.664062 189.839844 307.679688 188.328125 C 307.632812 186.09375 307.953125 183.875 308.242188 181.667969 C 308.566406 182.347656 308.8125 183.058594 309.105469 183.75 C 309.191406 183.945312 309.253906 184.152344 309.378906 184.324219 C 309.140625 183.097656 308.832031 181.886719 308.574219 180.664062 C 308.539062 180.484375 308.480469 180.304688 308.484375 180.121094 C 308.589844 179.25 308.75 178.390625 308.894531 177.527344 C 309.117188 176.246094 309.335938 174.96875 309.550781 173.6875 C 309.722656 172.613281 309.914062 171.539062 310.03125 170.457031 C 310.089844 171.140625 310.164062 171.824219 310.351562 172.488281 C 310.691406 173.785156 311.328125 175 312.199219 176.015625 C 312 175.628906 311.808594 175.234375 311.644531 174.828125 C 311.609375 174.773438 311.644531 174.722656 311.6875 174.683594 C 311.914062 175.132812 312.117188 175.59375 312.375 176.027344 C 311.972656 175.21875 311.550781 174.414062 311.253906 173.558594 C 311.183594 173.554688 311.148438 173.519531 311.136719 173.453125 C 310.777344 172.222656 310.546875 170.910156 310.792969 169.632812 C 310.871094 169.300781 311.207031 169.160156 311.429688 168.941406 C 311.628906 168.746094 311.664062 168.445312 311.632812 168.179688 C 311.535156 167.375 311.71875 166.566406 311.988281 165.808594 C 312.554688 164.246094 313.476562 162.847656 314.152344 161.332031 C 314.601562 160.507812 315.144531 159.738281 315.671875 158.957031 C 316.878906 157.214844 318.117188 155.488281 319.398438 153.796875 C 319.726562 153.386719 320.035156 152.957031 320.402344 152.578125 C 320.28125 152.902344 320.148438 153.234375 320.179688 153.589844 C 320.191406 153.929688 320.398438 154.214844 320.515625 154.523438 C 320.535156 153.542969 320.898438 152.609375 321.355469 151.753906 C 321.773438 150.976562 322.285156 150.246094 322.902344 149.613281 C 323.175781 149.34375 323.46875 149.085938 323.804688 148.898438 C 323.648438 149.226562 323.570312 149.589844 323.578125 149.953125 C 323.75 149.152344 324.304688 148.511719 324.839844 147.921875 C 326.171875 146.535156 327.734375 145.402344 329.320312 144.328125 C 331.15625 143.121094 333.046875 141.984375 335.058594 141.085938 M 321.753906 159.898438 C 320.375 162.523438 319.105469 165.210938 317.964844 167.949219 C 316.511719 171.414062 315.273438 174.960938 314.160156 178.542969 C 314.117188 178.542969 314.03125 178.539062 313.984375 178.539062 C 313.925781 178.320312 313.746094 178.164062 313.628906 177.976562 C 313.175781 177.363281 312.792969 176.703125 312.394531 176.058594 C 312.824219 176.867188 313.339844 177.625 313.882812 178.363281 C 313.917969 178.417969 313.949219 178.476562 313.976562 178.535156 C 313.929688 178.535156 313.835938 178.535156 313.789062 178.53125 C 313.867188 178.660156 313.875 178.804688 313.839844 178.949219 C 313.886719 178.949219 313.984375 178.949219 314.03125 178.949219 C 313.972656 179.207031 313.886719 179.457031 313.8125 179.710938 C 312.328125 184.707031 311.085938 189.769531 309.949219 194.855469 C 310.082031 194.851562 310.242188 194.886719 310.359375 194.847656 C 311.082031 191.742188 311.820312 188.644531 312.625 185.558594 C 313.3125 182.925781 314.015625 180.292969 314.816406 177.6875 C 315.960938 173.960938 317.242188 170.265625 318.777344 166.679688 C 319.714844 164.574219 320.703125 162.492188 321.726562 160.429688 C 321.8125 160.234375 321.949219 160.058594 321.96875 159.839844 C 321.894531 159.847656 321.78125 159.796875 321.753906 159.898438 M 311.589844 195.15625 C 311.914062 195.066406 312.257812 195.015625 312.589844 195.101562 C 313.035156 195.179688 313.441406 195.515625 313.546875 195.964844 C 313.570312 196.085938 313.617188 196.199219 313.699219 196.292969 C 313.828125 195.863281 313.667969 195.347656 313.292969 195.089844 C 312.992188 194.902344 312.625 194.824219 312.273438 194.863281 C 312.027344 194.902344 311.761719 194.964844 311.589844 195.15625 M 306.039062 196.007812 C 306.414062 195.84375 306.816406 195.71875 307.230469 195.730469 C 307.632812 195.71875 308.019531 195.859375 308.382812 196.015625 C 308.238281 195.855469 308.09375 195.691406 307.898438 195.59375 C 307.289062 195.285156 306.445312 195.449219 306.039062 196.007812 M 311.246094 195.710938 C 311.0625 195.824219 311.011719 196.054688 310.980469 196.253906 C 311.214844 195.996094 311.511719 195.789062 311.851562 195.707031 C 312.1875 195.617188 312.53125 195.699219 312.851562 195.796875 C 312.550781 195.574219 312.179688 195.445312 311.804688 195.453125 C 311.589844 195.441406 311.414062 195.597656 311.246094 195.710938 M 310.863281 196.816406 C 311.042969 196.832031 311.21875 196.875 311.386719 196.941406 C 311.910156 196.769531 312.492188 196.882812 312.949219 197.171875 L 312.972656 197.167969 C 313.167969 197.394531 313.433594 197.5625 313.570312 197.839844 C 313.617188 197.902344 313.625 198.003906 313.703125 198.039062 C 313.917969 197.609375 313.9375 197.066406 313.640625 196.671875 C 313.488281 196.90625 313.238281 197.046875 313.011719 197.203125 C 312.949219 197.019531 313.15625 197.058594 313.222656 196.953125 C 313.359375 196.773438 313.398438 196.542969 313.398438 196.324219 C 312.992188 195.984375 312.4375 195.777344 311.910156 195.894531 C 311.441406 196.027344 311.105469 196.414062 310.863281 196.816406 M 305.914062 196.292969 C 305.847656 196.503906 305.871094 196.726562 305.910156 196.941406 C 306.382812 196.601562 306.953125 196.378906 307.535156 196.367188 C 307.769531 196.429688 307.988281 196.320312 308.214844 196.289062 C 307.507812 195.933594 306.609375 195.875 305.914062 196.292969 M 305.054688 197.050781 C 304.761719 197.527344 304.734375 198.128906 304.894531 198.65625 C 304.976562 198.003906 305.328125 197.40625 305.839844 196.996094 C 305.785156 196.789062 305.75 196.574219 305.78125 196.359375 C 305.511719 196.554688 305.230469 196.757812 305.054688 197.050781 M 308.152344 196.480469 C 308.394531 196.578125 308.625 196.695312 308.84375 196.835938 C 308.789062 196.667969 308.652344 196.542969 308.496094 196.476562 C 308.382812 196.453125 308.265625 196.464844 308.152344 196.480469 M 313.496094 196.722656 C 313.574219 196.726562 313.625 196.601562 313.589844 196.542969 C 313.511719 196.527344 313.476562 196.660156 313.496094 196.722656 M 306 197.1875 C 306.125 197.382812 306.28125 197.570312 306.496094 197.671875 C 306.605469 197.234375 306.957031 196.933594 307.269531 196.640625 C 306.824219 196.757812 306.363281 196.886719 306 197.1875 M 307.433594 196.734375 C 307.070312 196.964844 306.746094 197.28125 306.601562 197.695312 C 306.644531 197.707031 306.730469 197.738281 306.773438 197.75 C 306.953125 197.453125 307.242188 197.210938 307.59375 197.152344 C 308.136719 197.054688 308.660156 197.339844 309.050781 197.691406 C 309.125 197.480469 308.910156 197.375 308.773438 197.269531 C 308.425781 197.027344 308.0625 196.789062 307.648438 196.683594 C 307.570312 196.644531 307.496094 196.695312 307.433594 196.734375 M 310.839844 196.929688 C 310.816406 197.027344 310.796875 197.128906 310.773438 197.230469 C 310.925781 197.140625 311.082031 197.0625 311.242188 196.988281 C 311.109375 196.953125 310.976562 196.925781 310.839844 196.929688 M 311.640625 197.097656 C 311.925781 197.316406 312.128906 197.667969 312.058594 198.03125 C 312.023438 198.324219 311.816406 198.558594 311.585938 198.722656 C 312.25 199.171875 313.21875 198.867188 313.605469 198.195312 C 313.539062 197.941406 313.359375 197.730469 313.179688 197.542969 C 312.785156 197.144531 312.1875 197 311.640625 197.097656 M 310.851562 197.453125 C 310.792969 197.5 310.707031 197.539062 310.695312 197.625 C 310.570312 198.226562 310.457031 198.832031 310.332031 199.433594 C 310.734375 199.441406 311.140625 199.425781 311.542969 199.421875 C 311.90625 199.40625 312.289062 199.496094 312.542969 199.769531 C 312.949219 199.601562 313.320312 199.332031 313.574219 198.96875 C 313.660156 198.769531 313.652344 198.542969 313.640625 198.332031 C 313.382812 198.640625 313.039062 198.886719 312.636719 198.953125 C 312.261719 199.039062 311.863281 198.949219 311.546875 198.738281 C 311.320312 198.835938 311.078125 198.796875 310.871094 198.679688 C 311.070312 198.761719 311.300781 198.835938 311.507812 198.714844 C 311.390625 198.585938 311.285156 198.441406 311.246094 198.265625 L 311.207031 198.28125 C 311.203125 198.203125 311.203125 198.125 311.203125 198.046875 C 311.296875 198.117188 311.246094 198.246094 311.285156 198.34375 C 311.335938 198.480469 311.429688 198.609375 311.550781 198.695312 C 311.882812 198.515625 312.089844 198.101562 311.992188 197.730469 C 311.9375 197.476562 311.753906 197.269531 311.535156 197.140625 C 311.285156 197.175781 311.058594 197.308594 310.851562 197.453125 M 305.09375 199.128906 C 305.363281 199.679688 305.90625 200.09375 306.511719 200.199219 C 306.546875 199.757812 306.972656 199.476562 307.382812 199.429688 C 307.03125 199.261719 306.714844 198.984375 306.566406 198.613281 C 306.445312 198.335938 306.4375 198.019531 306.480469 197.722656 C 306.25 197.621094 306.070312 197.4375 305.9375 197.226562 C 305.375 197.671875 304.980469 198.398438 305.09375 199.128906 M 307.273438 197.554688 C 307.203125 197.605469 307.097656 197.648438 307.09375 197.75 C 306.859375 197.855469 306.789062 198.164062 306.769531 198.398438 C 306.746094 198.664062 306.929688 198.871094 307.125 199.027344 C 306.871094 198.898438 306.695312 198.636719 306.671875 198.351562 C 306.640625 198.15625 306.710938 197.96875 306.753906 197.78125 C 306.710938 197.773438 306.628906 197.757812 306.589844 197.75 C 306.542969 197.980469 306.53125 198.222656 306.597656 198.449219 C 306.691406 198.820312 306.964844 199.125 307.289062 199.324219 C 307.503906 199.464844 307.773438 199.421875 308.019531 199.429688 C 308.222656 199.441406 308.378906 199.296875 308.527344 199.175781 C 308.625 199.074219 308.757812 198.988281 308.773438 198.839844 C 308.828125 198.589844 308.894531 198.34375 308.9375 198.09375 C 308.824219 197.859375 308.601562 197.6875 308.375 197.574219 C 308.03125 197.421875 307.605469 197.347656 307.273438 197.554688 M 313.960938 197.613281 C 313.90625 197.828125 313.824219 198.035156 313.714844 198.226562 C 313.746094 198.390625 313.738281 198.558594 313.75 198.722656 C 313.910156 198.378906 313.996094 197.996094 313.960938 197.613281 M 308.492188 199.277344 L 308.464844 199.25 C 308.378906 199.316406 308.292969 199.375 308.207031 199.4375 C 308.351562 199.433594 308.496094 199.433594 308.644531 199.433594 C 308.660156 199.335938 308.71875 199.234375 308.675781 199.140625 C 308.59375 199.125 308.546875 199.230469 308.492188 199.277344 M 305.144531 199.378906 C 305.378906 200.410156 306.421875 201.253906 307.496094 201.132812 C 307.347656 201.035156 307.160156 201.042969 307.007812 200.957031 C 306.71875 200.824219 306.5 200.535156 306.515625 200.210938 C 305.960938 200.144531 305.488281 199.800781 305.144531 199.378906 Z M 305.144531 199.378906 " fill-opacity="1" fill-rule="nonzero"/></g><g fill="#000000" fill-opacity="1"><g transform="translate(99.455161, 202.548927)"><g><path d="M 17.8125 -11.640625 C 18.226562 -12.128906 18.65625 -12.578125 19.09375 -12.984375 C 19.539062 -13.398438 19.984375 -13.757812 20.421875 -14.0625 C 20.867188 -14.363281 21.304688 -14.59375 21.734375 -14.75 C 22.171875 -14.914062 22.59375 -15 23 -15 C 23.3125 -15 23.617188 -14.945312 23.921875 -14.84375 C 24.234375 -14.738281 24.507812 -14.570312 24.75 -14.34375 C 24.988281 -14.125 25.179688 -13.84375 25.328125 -13.5 C 25.472656 -13.164062 25.546875 -12.757812 25.546875 -12.28125 C 25.546875 -11.601562 25.453125 -10.929688 25.265625 -10.265625 C 25.078125 -9.597656 24.835938 -8.953125 24.546875 -8.328125 C 24.265625 -7.703125 23.960938 -7.09375 23.640625 -6.5 C 23.316406 -5.914062 23.015625 -5.359375 22.734375 -4.828125 C 22.453125 -4.296875 22.21875 -3.789062 22.03125 -3.3125 C 21.84375 -2.832031 21.75 -2.390625 21.75 -1.984375 C 21.75 -1.671875 21.832031 -1.445312 22 -1.3125 C 22.164062 -1.175781 22.335938 -1.109375 22.515625 -1.109375 C 22.890625 -1.109375 23.328125 -1.320312 23.828125 -1.75 C 24.335938 -2.175781 24.867188 -2.722656 25.421875 -3.390625 C 25.984375 -4.066406 26.546875 -4.804688 27.109375 -5.609375 C 27.671875 -6.421875 28.210938 -7.210938 28.734375 -7.984375 L 29.5 -7.390625 C 29.3125 -7.085938 29.070312 -6.6875 28.78125 -6.1875 C 28.488281 -5.695312 28.148438 -5.171875 27.765625 -4.609375 C 27.378906 -4.046875 26.957031 -3.472656 26.5 -2.890625 C 26.039062 -2.316406 25.554688 -1.796875 25.046875 -1.328125 C 24.546875 -0.867188 24.023438 -0.492188 23.484375 -0.203125 C 22.941406 0.0859375 22.398438 0.234375 21.859375 0.234375 C 21.554688 0.234375 21.265625 0.191406 20.984375 0.109375 C 20.710938 0.0234375 20.46875 -0.109375 20.25 -0.296875 C 20.039062 -0.492188 19.867188 -0.75 19.734375 -1.0625 C 19.609375 -1.382812 19.546875 -1.769531 19.546875 -2.21875 C 19.546875 -2.851562 19.648438 -3.46875 19.859375 -4.0625 C 20.078125 -4.664062 20.347656 -5.257812 20.671875 -5.84375 C 21.003906 -6.425781 21.359375 -7.003906 21.734375 -7.578125 C 22.117188 -8.160156 22.472656 -8.738281 22.796875 -9.3125 C 23.128906 -9.882812 23.398438 -10.457031 23.609375 -11.03125 C 23.828125 -11.613281 23.9375 -12.203125 23.9375 -12.796875 C 23.9375 -13.097656 23.878906 -13.335938 23.765625 -13.515625 C 23.648438 -13.691406 23.4375 -13.78125 23.125 -13.78125 C 22.625 -13.78125 22.09375 -13.578125 21.53125 -13.171875 C 20.976562 -12.765625 20.398438 -12.21875 19.796875 -11.53125 C 19.203125 -10.851562 18.585938 -10.0625 17.953125 -9.15625 C 17.328125 -8.25 16.703125 -7.289062 16.078125 -6.28125 C 15.460938 -5.28125 14.851562 -4.257812 14.25 -3.21875 C 13.644531 -2.1875 13.0625 -1.191406 12.5 -0.234375 L 10.703125 -1.171875 C 11.460938 -2.734375 12.171875 -4.125 12.828125 -5.34375 C 13.492188 -6.570312 14.078125 -7.679688 14.578125 -8.671875 C 15.078125 -9.671875 15.46875 -10.578125 15.75 -11.390625 C 16.039062 -12.210938 16.1875 -12.988281 16.1875 -13.71875 C 16.1875 -13.863281 16.171875 -14.007812 16.140625 -14.15625 C 16.109375 -14.3125 16.050781 -14.445312 15.96875 -14.5625 C 15.882812 -14.675781 15.773438 -14.769531 15.640625 -14.84375 C 15.503906 -14.925781 15.328125 -14.96875 15.109375 -14.96875 C 14.628906 -14.96875 14.140625 -14.738281 13.640625 -14.28125 C 13.140625 -13.832031 12.609375 -13.21875 12.046875 -12.4375 C 11.492188 -11.664062 10.898438 -10.757812 10.265625 -9.71875 C 9.628906 -8.6875 8.941406 -7.59375 8.203125 -6.4375 C 7.472656 -5.28125 6.675781 -4.09375 5.8125 -2.875 C 4.957031 -1.65625 4.023438 -0.476562 3.015625 0.65625 L 1.546875 -0.328125 C 1.992188 -1.003906 2.472656 -1.722656 2.984375 -2.484375 C 3.492188 -3.253906 3.992188 -4.03125 4.484375 -4.8125 C 4.972656 -5.601562 5.441406 -6.382812 5.890625 -7.15625 C 6.347656 -7.9375 6.742188 -8.675781 7.078125 -9.375 C 7.421875 -10.070312 7.691406 -10.710938 7.890625 -11.296875 C 8.097656 -11.890625 8.203125 -12.390625 8.203125 -12.796875 C 8.203125 -13.285156 8.078125 -13.632812 7.828125 -13.84375 C 7.585938 -14.0625 7.273438 -14.171875 6.890625 -14.171875 C 6.429688 -14.171875 5.984375 -14.003906 5.546875 -13.671875 C 5.117188 -13.347656 4.664062 -12.882812 4.1875 -12.28125 C 3.707031 -11.6875 3.191406 -10.972656 2.640625 -10.140625 C 2.085938 -9.304688 1.460938 -8.390625 0.765625 -7.390625 L 0 -7.984375 C 0.757812 -9.179688 1.441406 -10.238281 2.046875 -11.15625 C 2.648438 -12.070312 3.222656 -12.832031 3.765625 -13.4375 C 4.304688 -14.050781 4.84375 -14.515625 5.375 -14.828125 C 5.914062 -15.148438 6.5 -15.3125 7.125 -15.3125 C 7.3125 -15.3125 7.550781 -15.273438 7.84375 -15.203125 C 8.132812 -15.128906 8.421875 -15 8.703125 -14.8125 C 8.992188 -14.625 9.25 -14.363281 9.46875 -14.03125 C 9.695312 -13.707031 9.832031 -13.289062 9.875 -12.78125 C 10.664062 -13.8125 11.5 -14.628906 12.375 -15.234375 C 13.25 -15.847656 14.066406 -16.15625 14.828125 -16.15625 C 15.390625 -16.15625 15.863281 -16.046875 16.25 -15.828125 C 16.632812 -15.609375 16.941406 -15.316406 17.171875 -14.953125 C 17.410156 -14.597656 17.582031 -14.195312 17.6875 -13.75 C 17.800781 -13.300781 17.859375 -12.847656 17.859375 -12.390625 C 17.859375 -12.273438 17.851562 -12.15625 17.84375 -12.03125 C 17.832031 -11.90625 17.820312 -11.773438 17.8125 -11.640625 Z M 17.8125 -11.640625 "/></g></g></g><g fill="#000000" fill-opacity="1"><g transform="translate(128.182244, 202.548927)"><g><path d="M 9.484375 -4.78125 C 8.929688 -4.164062 8.367188 -3.597656 7.796875 -3.078125 C 7.222656 -2.554688 6.65625 -2.101562 6.09375 -1.71875 C 5.539062 -1.332031 4.992188 -1.023438 4.453125 -0.796875 C 3.921875 -0.578125 3.40625 -0.46875 2.90625 -0.46875 C 2.351562 -0.46875 1.851562 -0.570312 1.40625 -0.78125 C 0.957031 -0.988281 0.570312 -1.285156 0.25 -1.671875 C -0.0703125 -2.054688 -0.316406 -2.507812 -0.484375 -3.03125 C -0.660156 -3.5625 -0.75 -4.148438 -0.75 -4.796875 C -0.75 -5.648438 -0.566406 -6.539062 -0.203125 -7.46875 C 0.148438 -8.394531 0.609375 -9.296875 1.171875 -10.171875 C 1.734375 -11.054688 2.359375 -11.890625 3.046875 -12.671875 C 3.742188 -13.453125 4.421875 -14.128906 5.078125 -14.703125 L 6 -14.0625 C 5.820312 -13.820312 5.582031 -13.488281 5.28125 -13.0625 C 4.988281 -12.632812 4.671875 -12.132812 4.328125 -11.5625 C 3.984375 -11 3.632812 -10.390625 3.28125 -9.734375 C 2.9375 -9.078125 2.617188 -8.40625 2.328125 -7.71875 C 2.046875 -7.039062 1.816406 -6.359375 1.640625 -5.671875 C 1.460938 -4.984375 1.375 -4.34375 1.375 -3.75 C 1.375 -3.457031 1.394531 -3.179688 1.4375 -2.921875 C 1.488281 -2.660156 1.578125 -2.425781 1.703125 -2.21875 C 1.828125 -2.019531 1.988281 -1.863281 2.1875 -1.75 C 2.382812 -1.632812 2.640625 -1.578125 2.953125 -1.578125 C 3.453125 -1.578125 4 -1.726562 4.59375 -2.03125 C 5.1875 -2.34375 5.800781 -2.765625 6.4375 -3.296875 C 7.070312 -3.835938 7.71875 -4.460938 8.375 -5.171875 C 9.039062 -5.890625 9.691406 -6.65625 10.328125 -7.46875 C 10.972656 -8.28125 11.597656 -9.117188 12.203125 -9.984375 C 12.804688 -10.847656 13.363281 -11.703125 13.875 -12.546875 C 14.332031 -13.304688 14.785156 -14.066406 15.234375 -14.828125 C 15.691406 -15.585938 16.148438 -16.332031 16.609375 -17.0625 L 17.625 -16.546875 C 17.601562 -16.515625 17.46875 -16.242188 17.21875 -15.734375 C 16.96875 -15.234375 16.632812 -14.550781 16.21875 -13.6875 C 15.8125 -12.820312 15.332031 -11.820312 14.78125 -10.6875 C 14.226562 -9.550781 13.644531 -8.34375 13.03125 -7.0625 C 12.414062 -5.789062 11.789062 -4.484375 11.15625 -3.140625 C 10.53125 -1.804688 9.914062 -0.503906 9.3125 0.765625 C 11.320312 -0.347656 13.144531 -1.664062 14.78125 -3.1875 C 16.414062 -4.71875 17.816406 -6.316406 18.984375 -7.984375 L 19.78125 -7.390625 C 18.539062 -5.484375 17 -3.726562 15.15625 -2.125 C 13.3125 -0.519531 11.09375 1.015625 8.5 2.484375 C 7.3125 5.023438 6.148438 7.34375 5.015625 9.4375 C 3.878906 11.539062 2.742188 13.335938 1.609375 14.828125 C 0.484375 16.328125 -0.644531 17.488281 -1.78125 18.3125 C -2.914062 19.132812 -4.070312 19.546875 -5.25 19.546875 C -6.019531 19.546875 -6.660156 19.285156 -7.171875 18.765625 C -7.679688 18.253906 -7.9375 17.519531 -7.9375 16.5625 C -7.9375 15.769531 -7.757812 14.953125 -7.40625 14.109375 C -7.050781 13.265625 -6.554688 12.414062 -5.921875 11.5625 C -5.296875 10.71875 -4.550781 9.878906 -3.6875 9.046875 C -2.820312 8.210938 -1.878906 7.410156 -0.859375 6.640625 C 0.148438 5.867188 1.21875 5.128906 2.34375 4.421875 C 3.46875 3.722656 4.609375 3.082031 5.765625 2.5 C 6.054688 1.875 6.375 1.210938 6.71875 0.515625 C 7.0625 -0.171875 7.394531 -0.835938 7.71875 -1.484375 C 8.050781 -2.140625 8.367188 -2.753906 8.671875 -3.328125 C 8.984375 -3.910156 9.253906 -4.394531 9.484375 -4.78125 Z M 4.78125 4.578125 C 3.132812 5.585938 1.609375 6.664062 0.203125 7.8125 C -1.203125 8.96875 -2.421875 10.101562 -3.453125 11.21875 C -4.492188 12.34375 -5.304688 13.394531 -5.890625 14.375 C -6.472656 15.363281 -6.765625 16.203125 -6.765625 16.890625 C -6.765625 17.347656 -6.628906 17.710938 -6.359375 17.984375 C -6.097656 18.253906 -5.765625 18.390625 -5.359375 18.390625 C -4.796875 18.390625 -4.21875 18.195312 -3.625 17.8125 C -3.03125 17.4375 -2.4375 16.921875 -1.84375 16.265625 C -1.257812 15.609375 -0.671875 14.832031 -0.078125 13.9375 C 0.503906 13.050781 1.078125 12.097656 1.640625 11.078125 C 2.203125 10.054688 2.742188 8.992188 3.265625 7.890625 C 3.796875 6.785156 4.300781 5.679688 4.78125 4.578125 Z M 4.78125 4.578125 "/></g></g></g><g fill="#000000" fill-opacity="1"><g transform="translate(147.169524, 202.548927)"><g><path d="M 24.6875 -3.421875 C 24.082031 -3.578125 23.484375 -3.726562 22.890625 -3.875 C 22.296875 -4.03125 21.695312 -4.171875 21.09375 -4.296875 C 20.363281 -2.816406 19.585938 -1.363281 18.765625 0.0625 C 17.953125 1.488281 17.09375 2.894531 16.1875 4.28125 C 15.488281 5.332031 14.707031 6.363281 13.84375 7.375 C 12.976562 8.394531 12.0625 9.347656 11.09375 10.234375 C 10.132812 11.128906 9.132812 11.953125 8.09375 12.703125 C 7.0625 13.453125 6.019531 14.101562 4.96875 14.65625 C 3.925781 15.207031 2.882812 15.628906 1.84375 15.921875 C 0.8125 16.222656 -0.1875 16.375 -1.15625 16.375 C -2.03125 16.375 -2.90625 16.21875 -3.78125 15.90625 C -4.664062 15.601562 -5.460938 15.144531 -6.171875 14.53125 C -6.878906 13.914062 -7.453125 13.148438 -7.890625 12.234375 C -8.335938 11.316406 -8.5625 10.234375 -8.5625 8.984375 C -8.5625 8.347656 -8.484375 7.671875 -8.328125 6.953125 C -8.179688 6.242188 -7.9375 5.507812 -7.59375 4.75 C -7.257812 4 -6.816406 3.222656 -6.265625 2.421875 C -5.722656 1.628906 -5.0625 0.820312 -4.28125 0 C -3.238281 -1.09375 -2.070312 -2.039062 -0.78125 -2.84375 C 0.507812 -3.644531 1.878906 -4.304688 3.328125 -4.828125 C 4.785156 -5.347656 6.304688 -5.734375 7.890625 -5.984375 C 9.484375 -6.234375 11.09375 -6.359375 12.71875 -6.359375 C 13.789062 -6.359375 14.859375 -6.304688 15.921875 -6.203125 C 16.984375 -6.109375 18.050781 -5.96875 19.125 -5.78125 C 19.875 -7.351562 20.554688 -8.914062 21.171875 -10.46875 C 21.785156 -12.019531 22.320312 -13.554688 22.78125 -15.078125 C 23.46875 -17.390625 23.957031 -19.394531 24.25 -21.09375 C 24.550781 -22.789062 24.703125 -24.257812 24.703125 -25.5 C 24.703125 -26.550781 24.613281 -27.457031 24.4375 -28.21875 C 24.269531 -28.988281 24.050781 -29.640625 23.78125 -30.171875 C 23.507812 -30.710938 23.195312 -31.148438 22.84375 -31.484375 C 22.488281 -31.816406 22.128906 -32.070312 21.765625 -32.25 C 21.398438 -32.425781 21.039062 -32.546875 20.6875 -32.609375 C 20.34375 -32.679688 20.035156 -32.71875 19.765625 -32.71875 C 18.617188 -32.71875 17.59375 -32.441406 16.6875 -31.890625 C 15.789062 -31.347656 15.03125 -30.582031 14.40625 -29.59375 C 13.789062 -28.613281 13.316406 -27.425781 12.984375 -26.03125 C 12.660156 -24.644531 12.5 -23.101562 12.5 -21.40625 C 12.5 -20.082031 12.613281 -18.851562 12.84375 -17.71875 C 13.070312 -16.59375 13.359375 -15.566406 13.703125 -14.640625 C 14.046875 -13.710938 14.421875 -12.890625 14.828125 -12.171875 C 15.234375 -11.460938 15.609375 -10.863281 15.953125 -10.375 C 16.304688 -9.894531 16.597656 -9.523438 16.828125 -9.265625 C 17.054688 -9.015625 17.175781 -8.890625 17.1875 -8.890625 L 16.53125 -8.203125 C 15.613281 -8.984375 14.753906 -9.851562 13.953125 -10.8125 C 13.160156 -11.769531 12.46875 -12.796875 11.875 -13.890625 C 11.289062 -14.992188 10.828125 -16.160156 10.484375 -17.390625 C 10.140625 -18.628906 9.96875 -19.925781 9.96875 -21.28125 C 9.96875 -22.820312 10.1875 -24.34375 10.625 -25.84375 C 11.070312 -27.34375 11.71875 -28.6875 12.5625 -29.875 C 13.40625 -31.0625 14.441406 -32.019531 15.671875 -32.75 C 16.898438 -33.476562 18.296875 -33.84375 19.859375 -33.84375 C 20.222656 -33.84375 20.640625 -33.804688 21.109375 -33.734375 C 21.578125 -33.660156 22.0625 -33.515625 22.5625 -33.296875 C 23.0625 -33.078125 23.554688 -32.765625 24.046875 -32.359375 C 24.546875 -31.960938 24.984375 -31.429688 25.359375 -30.765625 C 25.734375 -30.109375 26.035156 -29.296875 26.265625 -28.328125 C 26.503906 -27.367188 26.625 -26.21875 26.625 -24.875 C 26.625 -24.257812 26.59375 -23.601562 26.53125 -22.90625 C 26.476562 -22.21875 26.398438 -21.476562 26.296875 -20.6875 C 25.890625 -18.03125 25.285156 -15.421875 24.484375 -12.859375 C 23.691406 -10.296875 22.71875 -7.769531 21.5625 -5.28125 C 22.15625 -5.15625 22.738281 -5.019531 23.3125 -4.875 C 23.882812 -4.738281 24.445312 -4.59375 25 -4.4375 Z M -1.171875 15.265625 C -0.109375 15.316406 1 15.109375 2.15625 14.640625 C 3.3125 14.171875 4.472656 13.488281 5.640625 12.59375 C 6.816406 11.707031 7.984375 10.632812 9.140625 9.375 C 10.304688 8.125 11.441406 6.75 12.546875 5.25 C 13.660156 3.75 14.726562 2.15625 15.75 0.46875 C 16.769531 -1.21875 17.722656 -2.941406 18.609375 -4.703125 C 17.878906 -4.804688 17.148438 -4.882812 16.421875 -4.9375 C 15.703125 -5 14.96875 -5.03125 14.21875 -5.03125 C 11.988281 -5.03125 9.925781 -4.78125 8.03125 -4.28125 C 6.144531 -3.78125 4.425781 -3.113281 2.875 -2.28125 C 1.332031 -1.457031 -0.03125 -0.515625 -1.21875 0.546875 C -2.40625 1.617188 -3.394531 2.722656 -4.1875 3.859375 C -4.988281 4.992188 -5.597656 6.117188 -6.015625 7.234375 C -6.429688 8.359375 -6.640625 9.382812 -6.640625 10.3125 C -6.640625 11.039062 -6.515625 11.707031 -6.265625 12.3125 C -6.015625 12.925781 -5.65625 13.445312 -5.1875 13.875 C -4.726562 14.3125 -4.160156 14.648438 -3.484375 14.890625 C -2.804688 15.140625 -2.035156 15.265625 -1.171875 15.265625 Z M -1.171875 15.265625 "/></g></g></g><g fill="#000000" fill-opacity="1"><g transform="translate(174.440988, 202.548927)"><g><path d="M 12.078125 -5.828125 C 12.128906 -5.804688 12.179688 -5.796875 12.234375 -5.796875 C 12.296875 -5.796875 12.363281 -5.796875 12.4375 -5.796875 C 12.832031 -5.796875 13.191406 -5.832031 13.515625 -5.90625 C 13.847656 -5.988281 14.15625 -6.113281 14.4375 -6.28125 C 14.71875 -6.457031 14.984375 -6.6875 15.234375 -6.96875 C 15.492188 -7.25 15.742188 -7.585938 15.984375 -7.984375 L 16.765625 -7.390625 C 16.078125 -6.421875 15.367188 -5.742188 14.640625 -5.359375 C 13.910156 -4.972656 13.140625 -4.78125 12.328125 -4.78125 C 12.023438 -4.78125 11.757812 -4.804688 11.53125 -4.859375 C 10.925781 -3.828125 10.269531 -2.953125 9.5625 -2.234375 C 8.863281 -1.515625 8.148438 -0.925781 7.421875 -0.46875 C 6.703125 -0.0078125 5.984375 0.316406 5.265625 0.515625 C 4.554688 0.722656 3.894531 0.828125 3.28125 0.828125 C 2.644531 0.828125 2.0625 0.71875 1.53125 0.5 C 1 0.28125 0.539062 -0.0351562 0.15625 -0.453125 C -0.226562 -0.867188 -0.53125 -1.359375 -0.75 -1.921875 C -0.96875 -2.492188 -1.078125 -3.140625 -1.078125 -3.859375 C -1.078125 -4.566406 -0.960938 -5.289062 -0.734375 -6.03125 C -0.503906 -6.78125 -0.191406 -7.515625 0.203125 -8.234375 C 0.597656 -8.960938 1.054688 -9.664062 1.578125 -10.34375 C 2.109375 -11.03125 2.679688 -11.664062 3.296875 -12.25 C 3.910156 -12.832031 4.546875 -13.359375 5.203125 -13.828125 C 5.859375 -14.296875 6.515625 -14.679688 7.171875 -14.984375 L 7.859375 -14.09375 C 7.097656 -13.539062 6.328125 -12.851562 5.546875 -12.03125 C 4.773438 -11.207031 4.070312 -10.300781 3.4375 -9.3125 C 2.800781 -8.320312 2.28125 -7.296875 1.875 -6.234375 C 1.46875 -5.171875 1.265625 -4.140625 1.265625 -3.140625 C 1.265625 -2.242188 1.460938 -1.550781 1.859375 -1.0625 C 2.265625 -0.570312 2.875 -0.328125 3.6875 -0.328125 C 4.3125 -0.328125 4.929688 -0.453125 5.546875 -0.703125 C 6.160156 -0.960938 6.757812 -1.3125 7.34375 -1.75 C 7.925781 -2.195312 8.488281 -2.722656 9.03125 -3.328125 C 9.570312 -3.929688 10.085938 -4.578125 10.578125 -5.265625 C 10.160156 -5.503906 9.796875 -5.828125 9.484375 -6.234375 C 9.171875 -6.640625 8.90625 -7.101562 8.6875 -7.625 C 8.476562 -8.144531 8.316406 -8.707031 8.203125 -9.3125 C 8.097656 -9.914062 8.046875 -10.53125 8.046875 -11.15625 C 8.046875 -11.78125 8.125 -12.367188 8.28125 -12.921875 C 8.4375 -13.484375 8.65625 -13.972656 8.9375 -14.390625 C 9.21875 -14.816406 9.539062 -15.148438 9.90625 -15.390625 C 10.28125 -15.628906 10.6875 -15.75 11.125 -15.75 C 11.53125 -15.75 11.890625 -15.644531 12.203125 -15.4375 C 12.515625 -15.238281 12.773438 -14.957031 12.984375 -14.59375 C 13.203125 -14.226562 13.367188 -13.796875 13.484375 -13.296875 C 13.597656 -12.796875 13.65625 -12.257812 13.65625 -11.6875 C 13.65625 -11.257812 13.617188 -10.785156 13.546875 -10.265625 C 13.472656 -9.753906 13.367188 -9.238281 13.234375 -8.71875 C 13.097656 -8.195312 12.929688 -7.679688 12.734375 -7.171875 C 12.546875 -6.671875 12.328125 -6.222656 12.078125 -5.828125 Z M 9.15625 -11.15625 C 9.15625 -10.738281 9.191406 -10.285156 9.265625 -9.796875 C 9.335938 -9.316406 9.453125 -8.847656 9.609375 -8.390625 C 9.765625 -7.929688 9.960938 -7.503906 10.203125 -7.109375 C 10.453125 -6.722656 10.753906 -6.414062 11.109375 -6.1875 C 11.367188 -6.6875 11.585938 -7.195312 11.765625 -7.71875 C 11.941406 -8.238281 12.085938 -8.738281 12.203125 -9.21875 C 12.328125 -9.707031 12.414062 -10.160156 12.46875 -10.578125 C 12.519531 -11.003906 12.546875 -11.375 12.546875 -11.6875 C 12.546875 -12.113281 12.507812 -12.503906 12.4375 -12.859375 C 12.363281 -13.222656 12.265625 -13.535156 12.140625 -13.796875 C 12.023438 -14.054688 11.878906 -14.257812 11.703125 -14.40625 C 11.523438 -14.5625 11.328125 -14.640625 11.109375 -14.640625 C 10.828125 -14.640625 10.5625 -14.539062 10.3125 -14.34375 C 10.070312 -14.15625 9.863281 -13.898438 9.6875 -13.578125 C 9.519531 -13.265625 9.390625 -12.894531 9.296875 -12.46875 C 9.203125 -12.050781 9.15625 -11.613281 9.15625 -11.15625 Z M 9.15625 -11.15625 "/></g></g></g><g fill="#000000" fill-opacity="1"><g transform="translate(190.431405, 202.548927)"><g><path d="M 9.96875 -4.671875 C 9.3125 -3.898438 8.660156 -3.1875 8.015625 -2.53125 C 7.378906 -1.882812 6.742188 -1.328125 6.109375 -0.859375 C 5.472656 -0.398438 4.84375 -0.0390625 4.21875 0.21875 C 3.59375 0.488281 2.957031 0.625 2.3125 0.625 C 1.769531 0.625 1.28125 0.523438 0.84375 0.328125 C 0.40625 0.140625 0.03125 -0.125 -0.28125 -0.46875 C -0.601562 -0.820312 -0.847656 -1.253906 -1.015625 -1.765625 C -1.191406 -2.273438 -1.28125 -2.84375 -1.28125 -3.46875 C -1.28125 -4.445312 -1.0625 -5.457031 -0.625 -6.5 C -0.195312 -7.550781 0.347656 -8.566406 1.015625 -9.546875 C 1.679688 -10.535156 2.414062 -11.472656 3.21875 -12.359375 C 4.03125 -13.242188 4.796875 -14.023438 5.515625 -14.703125 L 6.4375 -14.0625 C 5.925781 -13.3125 5.351562 -12.457031 4.71875 -11.5 C 4.082031 -10.539062 3.484375 -9.550781 2.921875 -8.53125 C 2.359375 -7.507812 1.882812 -6.488281 1.5 -5.46875 C 1.113281 -4.445312 0.921875 -3.503906 0.921875 -2.640625 C 0.921875 -2.046875 1.03125 -1.539062 1.25 -1.125 C 1.46875 -0.71875 1.894531 -0.515625 2.53125 -0.515625 C 3.207031 -0.515625 3.957031 -0.785156 4.78125 -1.328125 C 5.601562 -1.867188 6.445312 -2.570312 7.3125 -3.4375 C 8.175781 -4.3125 9.039062 -5.296875 9.90625 -6.390625 C 10.769531 -7.484375 11.585938 -8.585938 12.359375 -9.703125 C 13.128906 -10.816406 13.828125 -11.878906 14.453125 -12.890625 C 15.085938 -13.898438 15.609375 -14.765625 16.015625 -15.484375 L 17.578125 -14.703125 C 16.742188 -13.078125 15.945312 -11.5625 15.1875 -10.15625 C 14.425781 -8.75 13.75 -7.484375 13.15625 -6.359375 C 12.5625 -5.242188 12.085938 -4.269531 11.734375 -3.4375 C 11.390625 -2.613281 11.21875 -1.960938 11.21875 -1.484375 C 11.21875 -1.273438 11.257812 -1.109375 11.34375 -0.984375 C 11.425781 -0.859375 11.5625 -0.796875 11.75 -0.796875 C 12.28125 -0.773438 12.863281 -1 13.5 -1.46875 C 14.132812 -1.945312 14.773438 -2.539062 15.421875 -3.25 C 16.078125 -3.96875 16.710938 -4.75 17.328125 -5.59375 C 17.953125 -6.445312 18.515625 -7.242188 19.015625 -7.984375 L 19.78125 -7.390625 C 19.695312 -7.242188 19.519531 -6.945312 19.25 -6.5 C 18.976562 -6.0625 18.640625 -5.554688 18.234375 -4.984375 C 17.835938 -4.410156 17.378906 -3.8125 16.859375 -3.1875 C 16.347656 -2.5625 15.804688 -1.988281 15.234375 -1.46875 C 14.671875 -0.945312 14.082031 -0.515625 13.46875 -0.171875 C 12.851562 0.160156 12.242188 0.328125 11.640625 0.328125 C 11.273438 0.328125 10.945312 0.257812 10.65625 0.125 C 10.363281 0 10.113281 -0.164062 9.90625 -0.375 C 9.707031 -0.59375 9.550781 -0.84375 9.4375 -1.125 C 9.320312 -1.414062 9.265625 -1.71875 9.265625 -2.03125 C 9.265625 -2.40625 9.328125 -2.8125 9.453125 -3.25 C 9.578125 -3.695312 9.75 -4.171875 9.96875 -4.671875 Z M 9.96875 -4.671875 "/></g></g></g><g fill="#000000" fill-opacity="1"><g transform="translate(209.440086, 202.548927)"><g><path d="M 13.515625 -7.390625 C 13.296875 -7.078125 13.039062 -6.648438 12.75 -6.109375 C 12.457031 -5.578125 12.117188 -5 11.734375 -4.375 C 11.347656 -3.757812 10.921875 -3.128906 10.453125 -2.484375 C 9.992188 -1.835938 9.488281 -1.257812 8.9375 -0.75 C 8.382812 -0.238281 7.785156 0.175781 7.140625 0.5 C 6.503906 0.832031 5.820312 1 5.09375 1 C 4.695312 1 4.316406 0.9375 3.953125 0.8125 C 3.597656 0.695312 3.285156 0.507812 3.015625 0.25 C 2.742188 0 2.53125 -0.3125 2.375 -0.6875 C 2.21875 -1.070312 2.140625 -1.519531 2.140625 -2.03125 C 2.140625 -2.726562 2.273438 -3.457031 2.546875 -4.21875 C 2.828125 -4.988281 3.15625 -5.726562 3.53125 -6.4375 C 3.90625 -7.15625 4.273438 -7.8125 4.640625 -8.40625 C 5.015625 -9 5.285156 -9.472656 5.453125 -9.828125 C 5.628906 -10.179688 5.71875 -10.488281 5.71875 -10.75 C 5.71875 -10.9375 5.65625 -11.097656 5.53125 -11.234375 C 5.414062 -11.378906 5.265625 -11.519531 5.078125 -11.65625 C 4.898438 -11.789062 4.710938 -11.929688 4.515625 -12.078125 C 4.328125 -12.234375 4.171875 -12.414062 4.046875 -12.625 C 3.691406 -12.0625 3.328125 -11.484375 2.953125 -10.890625 C 2.628906 -10.390625 2.273438 -9.828125 1.890625 -9.203125 C 1.503906 -8.585938 1.128906 -7.984375 0.765625 -7.390625 L 0 -7.984375 L 4.578125 -15.15625 L 5.203125 -14.828125 C 5.171875 -14.742188 5.125 -14.609375 5.0625 -14.421875 C 5 -14.242188 4.96875 -14.046875 4.96875 -13.828125 C 4.96875 -13.671875 4.988281 -13.515625 5.03125 -13.359375 C 5.082031 -13.210938 5.191406 -13.078125 5.359375 -12.953125 C 5.921875 -12.441406 6.363281 -12.046875 6.6875 -11.765625 C 7.019531 -11.484375 7.257812 -11.257812 7.40625 -11.09375 C 7.5625 -10.9375 7.65625 -10.800781 7.6875 -10.6875 C 7.726562 -10.582031 7.75 -10.445312 7.75 -10.28125 C 7.75 -10.101562 7.71875 -9.894531 7.65625 -9.65625 C 7.601562 -9.414062 7.507812 -9.125 7.375 -8.78125 C 7.238281 -8.4375 7.050781 -8.03125 6.8125 -7.5625 C 6.582031 -7.101562 6.289062 -6.566406 5.9375 -5.953125 C 5.71875 -5.578125 5.503906 -5.203125 5.296875 -4.828125 C 5.085938 -4.453125 4.898438 -4.070312 4.734375 -3.6875 C 4.578125 -3.300781 4.445312 -2.914062 4.34375 -2.53125 C 4.25 -2.144531 4.203125 -1.769531 4.203125 -1.40625 C 4.203125 -1.132812 4.238281 -0.914062 4.3125 -0.75 C 4.394531 -0.59375 4.5 -0.46875 4.625 -0.375 C 4.75 -0.289062 4.882812 -0.234375 5.03125 -0.203125 C 5.1875 -0.179688 5.335938 -0.171875 5.484375 -0.171875 C 5.953125 -0.171875 6.414062 -0.304688 6.875 -0.578125 C 7.34375 -0.859375 7.800781 -1.21875 8.25 -1.65625 C 8.695312 -2.101562 9.128906 -2.609375 9.546875 -3.171875 C 9.972656 -3.742188 10.378906 -4.320312 10.765625 -4.90625 C 11.148438 -5.488281 11.503906 -6.046875 11.828125 -6.578125 C 12.160156 -7.117188 12.457031 -7.585938 12.71875 -7.984375 Z M 13.515625 -7.390625 "/></g></g></g><g fill="#000000" fill-opacity="1"><g transform="translate(222.155353, 202.548927)"><g><path d="M 17.875 -11.109375 C 17.875 -10.492188 17.765625 -9.867188 17.546875 -9.234375 C 17.335938 -8.597656 17.066406 -7.960938 16.734375 -7.328125 C 16.410156 -6.691406 16.0625 -6.066406 15.6875 -5.453125 C 15.320312 -4.835938 14.972656 -4.242188 14.640625 -3.671875 C 14.316406 -3.109375 14.046875 -2.566406 13.828125 -2.046875 C 13.617188 -1.523438 13.515625 -1.050781 13.515625 -0.625 C 13.515625 -0.289062 13.582031 -0.0664062 13.71875 0.046875 C 13.863281 0.160156 14.019531 0.21875 14.1875 0.21875 C 14.726562 0.21875 15.332031 -0.046875 16 -0.578125 C 16.675781 -1.117188 17.359375 -1.796875 18.046875 -2.609375 C 18.742188 -3.421875 19.4375 -4.304688 20.125 -5.265625 C 20.8125 -6.222656 21.429688 -7.128906 21.984375 -7.984375 L 22.75 -7.390625 C 22.632812 -7.210938 22.425781 -6.867188 22.125 -6.359375 C 21.832031 -5.859375 21.460938 -5.28125 21.015625 -4.625 C 20.578125 -3.976562 20.082031 -3.300781 19.53125 -2.59375 C 18.976562 -1.894531 18.390625 -1.25 17.765625 -0.65625 C 17.140625 -0.0625 16.492188 0.425781 15.828125 0.8125 C 15.160156 1.195312 14.492188 1.390625 13.828125 1.390625 C 13.441406 1.390625 13.09375 1.320312 12.78125 1.1875 C 12.46875 1.0625 12.195312 0.882812 11.96875 0.65625 C 11.75 0.4375 11.578125 0.175781 11.453125 -0.125 C 11.328125 -0.4375 11.265625 -0.765625 11.265625 -1.109375 C 11.265625 -1.671875 11.390625 -2.273438 11.640625 -2.921875 C 11.890625 -3.566406 12.195312 -4.234375 12.5625 -4.921875 C 12.9375 -5.609375 13.34375 -6.296875 13.78125 -6.984375 C 14.226562 -7.679688 14.632812 -8.34375 15 -8.96875 C 15.375 -9.59375 15.6875 -10.171875 15.9375 -10.703125 C 16.1875 -11.242188 16.3125 -11.707031 16.3125 -12.09375 C 16.3125 -12.539062 16.191406 -12.910156 15.953125 -13.203125 C 15.722656 -13.503906 15.394531 -13.65625 14.96875 -13.65625 C 14.507812 -13.65625 13.976562 -13.46875 13.375 -13.09375 C 12.78125 -12.71875 12.109375 -12.164062 11.359375 -11.4375 C 10.617188 -10.707031 9.8125 -9.8125 8.9375 -8.75 C 8.0625 -7.6875 7.109375 -6.472656 6.078125 -5.109375 C 5.492188 -4.328125 4.925781 -3.570312 4.375 -2.84375 C 4.125 -2.53125 3.878906 -2.207031 3.640625 -1.875 C 3.398438 -1.550781 3.15625 -1.226562 2.90625 -0.90625 C 2.664062 -0.582031 2.4375 -0.273438 2.21875 0.015625 C 2.007812 0.304688 1.816406 0.554688 1.640625 0.765625 L -0.234375 0 L 2.265625 -3.453125 C 2.617188 -3.929688 2.984375 -4.445312 3.359375 -5 C 3.734375 -5.5625 4.101562 -6.140625 4.46875 -6.734375 C 4.832031 -7.328125 5.175781 -7.921875 5.5 -8.515625 C 5.832031 -9.117188 6.140625 -9.707031 6.421875 -10.28125 C 6.835938 -11.132812 7.125 -11.84375 7.28125 -12.40625 C 7.4375 -12.96875 7.515625 -13.421875 7.515625 -13.765625 C 7.515625 -14.148438 7.441406 -14.398438 7.296875 -14.515625 C 7.160156 -14.640625 6.960938 -14.703125 6.703125 -14.703125 C 6.429688 -14.703125 6.117188 -14.5625 5.765625 -14.28125 C 5.421875 -14.007812 5.0625 -13.65625 4.6875 -13.21875 C 4.3125 -12.78125 3.9375 -12.285156 3.5625 -11.734375 C 3.1875 -11.191406 2.828125 -10.648438 2.484375 -10.109375 C 2.140625 -9.566406 1.816406 -9.050781 1.515625 -8.5625 C 1.222656 -8.070312 0.972656 -7.679688 0.765625 -7.390625 L 0 -7.984375 C 0.726562 -9.128906 1.390625 -10.175781 1.984375 -11.125 C 2.578125 -12.070312 3.144531 -12.882812 3.6875 -13.5625 C 4.238281 -14.25 4.773438 -14.78125 5.296875 -15.15625 C 5.816406 -15.539062 6.367188 -15.734375 6.953125 -15.734375 C 7.265625 -15.734375 7.566406 -15.664062 7.859375 -15.53125 C 8.160156 -15.40625 8.421875 -15.21875 8.640625 -14.96875 C 8.859375 -14.71875 9.03125 -14.414062 9.15625 -14.0625 C 9.289062 -13.707031 9.359375 -13.296875 9.359375 -12.828125 C 9.359375 -12.453125 9.316406 -12.066406 9.234375 -11.671875 C 9.859375 -12.285156 10.441406 -12.789062 10.984375 -13.1875 C 11.523438 -13.582031 12.023438 -13.898438 12.484375 -14.140625 C 12.941406 -14.378906 13.363281 -14.546875 13.75 -14.640625 C 14.132812 -14.742188 14.484375 -14.796875 14.796875 -14.796875 C 15.066406 -14.796875 15.378906 -14.742188 15.734375 -14.640625 C 16.085938 -14.546875 16.421875 -14.363281 16.734375 -14.09375 C 17.054688 -13.820312 17.328125 -13.445312 17.546875 -12.96875 C 17.765625 -12.488281 17.875 -11.867188 17.875 -11.109375 Z M 17.875 -11.109375 "/></g></g></g><g fill="#000000" fill-opacity="1"><g transform="translate(244.139498, 202.548927)"><g><path d="M 17.015625 -14.234375 C 16.828125 -13.867188 16.566406 -13.382812 16.234375 -12.78125 C 15.898438 -12.175781 15.539062 -11.515625 15.15625 -10.796875 C 14.769531 -10.078125 14.378906 -9.320312 13.984375 -8.53125 C 13.597656 -7.75 13.242188 -6.984375 12.921875 -6.234375 C 12.597656 -5.484375 12.332031 -4.773438 12.125 -4.109375 C 11.914062 -3.453125 11.8125 -2.894531 11.8125 -2.4375 C 11.8125 -1.976562 11.898438 -1.679688 12.078125 -1.546875 C 12.265625 -1.410156 12.5 -1.34375 12.78125 -1.34375 C 13.195312 -1.34375 13.617188 -1.460938 14.046875 -1.703125 C 14.484375 -1.953125 14.910156 -2.269531 15.328125 -2.65625 C 15.753906 -3.039062 16.164062 -3.472656 16.5625 -3.953125 C 16.96875 -4.441406 17.34375 -4.929688 17.6875 -5.421875 C 18.039062 -5.921875 18.359375 -6.394531 18.640625 -6.84375 C 18.929688 -7.289062 19.175781 -7.671875 19.375 -7.984375 L 20.140625 -7.390625 C 19.898438 -6.929688 19.613281 -6.4375 19.28125 -5.90625 C 18.957031 -5.375 18.597656 -4.84375 18.203125 -4.3125 C 17.816406 -3.78125 17.394531 -3.265625 16.9375 -2.765625 C 16.476562 -2.265625 15.992188 -1.820312 15.484375 -1.4375 C 14.984375 -1.050781 14.453125 -0.742188 13.890625 -0.515625 C 13.335938 -0.285156 12.769531 -0.171875 12.1875 -0.171875 C 11.320312 -0.171875 10.691406 -0.425781 10.296875 -0.9375 C 9.898438 -1.457031 9.703125 -2.125 9.703125 -2.9375 C 9.703125 -2.988281 9.703125 -3.109375 9.703125 -3.296875 C 9.710938 -3.492188 9.734375 -3.648438 9.765625 -3.765625 C 9.046875 -2.867188 8.363281 -2.125 7.71875 -1.53125 C 7.070312 -0.945312 6.441406 -0.484375 5.828125 -0.140625 C 5.222656 0.191406 4.640625 0.425781 4.078125 0.5625 C 3.515625 0.695312 2.976562 0.765625 2.46875 0.765625 C 1.914062 0.765625 1.398438 0.675781 0.921875 0.5 C 0.453125 0.320312 0.0351562 0.0625 -0.328125 -0.28125 C -0.691406 -0.625 -0.976562 -1.046875 -1.1875 -1.546875 C -1.394531 -2.046875 -1.5 -2.625 -1.5 -3.28125 C -1.5 -4.09375 -1.316406 -5.019531 -0.953125 -6.0625 C -0.585938 -7.113281 0.0546875 -8.25 0.984375 -9.46875 C 1.765625 -10.507812 2.578125 -11.382812 3.421875 -12.09375 C 4.273438 -12.8125 5.113281 -13.382812 5.9375 -13.8125 C 6.757812 -14.25 7.539062 -14.5625 8.28125 -14.75 C 9.019531 -14.9375 9.6875 -15.03125 10.28125 -15.03125 C 11.59375 -15.03125 12.582031 -14.8125 13.25 -14.375 C 13.914062 -13.9375 14.320312 -13.269531 14.46875 -12.375 C 14.757812 -12.726562 15.0625 -13.082031 15.375 -13.4375 C 15.6875 -13.800781 16.003906 -14.164062 16.328125 -14.53125 Z M 10.453125 -6.09375 C 10.628906 -6.394531 10.851562 -6.773438 11.125 -7.234375 C 11.394531 -7.703125 11.679688 -8.179688 11.984375 -8.671875 C 12.285156 -9.171875 12.578125 -9.648438 12.859375 -10.109375 C 13.148438 -10.566406 13.398438 -10.953125 13.609375 -11.265625 C 13.609375 -11.390625 13.59375 -11.59375 13.5625 -11.875 C 13.53125 -12.164062 13.429688 -12.457031 13.265625 -12.75 C 13.109375 -13.039062 12.859375 -13.289062 12.515625 -13.5 C 12.179688 -13.71875 11.707031 -13.828125 11.09375 -13.828125 C 10.644531 -13.828125 10.144531 -13.757812 9.59375 -13.625 C 9.050781 -13.488281 8.46875 -13.257812 7.84375 -12.9375 C 7.226562 -12.613281 6.585938 -12.1875 5.921875 -11.65625 C 5.265625 -11.132812 4.609375 -10.484375 3.953125 -9.703125 C 2.972656 -8.515625 2.210938 -7.320312 1.671875 -6.125 C 1.140625 -4.9375 0.875 -3.863281 0.875 -2.90625 C 0.875 -2.09375 1.054688 -1.460938 1.421875 -1.015625 C 1.796875 -0.578125 2.328125 -0.359375 3.015625 -0.359375 C 3.804688 -0.359375 4.539062 -0.53125 5.21875 -0.875 C 5.90625 -1.226562 6.546875 -1.679688 7.140625 -2.234375 C 7.742188 -2.796875 8.316406 -3.414062 8.859375 -4.09375 C 9.398438 -4.769531 9.929688 -5.4375 10.453125 -6.09375 Z M 10.453125 -6.09375 "/></g></g></g><g fill="#000000" fill-opacity="1"><g transform="translate(263.512089, 202.548927)"><g><path d="M 15.5 -31.15625 C 16 -31.15625 16.414062 -31.03125 16.75 -30.78125 C 17.082031 -30.539062 17.25 -30.097656 17.25 -29.453125 C 17.25 -29.015625 17.160156 -28.488281 16.984375 -27.875 C 16.804688 -27.257812 16.5625 -26.59375 16.25 -25.875 C 15.945312 -25.15625 15.585938 -24.398438 15.171875 -23.609375 C 14.765625 -22.816406 14.320312 -22.023438 13.84375 -21.234375 C 13.363281 -20.453125 12.863281 -19.6875 12.34375 -18.9375 C 11.820312 -18.195312 11.304688 -17.515625 10.796875 -16.890625 C 9.765625 -15.617188 8.875 -14.546875 8.125 -13.671875 C 7.375 -12.804688 6.726562 -12.066406 6.1875 -11.453125 C 5.644531 -10.847656 5.1875 -10.359375 4.8125 -9.984375 C 4.445312 -9.609375 4.117188 -9.285156 3.828125 -9.015625 C 3.546875 -8.742188 3.28125 -8.492188 3.03125 -8.265625 C 2.789062 -8.046875 2.546875 -7.800781 2.296875 -7.53125 C 2.179688 -6.988281 2.125 -6.472656 2.125 -5.984375 C 2.132812 -5.492188 2.140625 -5.039062 2.140625 -4.625 C 2.140625 -3.382812 2.335938 -2.460938 2.734375 -1.859375 C 3.140625 -1.265625 3.707031 -0.96875 4.4375 -0.96875 C 4.914062 -0.96875 5.398438 -1.09375 5.890625 -1.34375 C 6.390625 -1.59375 6.878906 -1.914062 7.359375 -2.3125 C 7.847656 -2.707031 8.320312 -3.160156 8.78125 -3.671875 C 9.238281 -4.179688 9.671875 -4.695312 10.078125 -5.21875 C 10.484375 -5.738281 10.847656 -6.238281 11.171875 -6.71875 C 11.503906 -7.207031 11.789062 -7.628906 12.03125 -7.984375 L 12.828125 -7.390625 C 12.785156 -7.328125 12.644531 -7.097656 12.40625 -6.703125 C 12.164062 -6.316406 11.851562 -5.84375 11.46875 -5.28125 C 11.082031 -4.726562 10.625 -4.132812 10.09375 -3.5 C 9.570312 -2.863281 9.003906 -2.273438 8.390625 -1.734375 C 7.773438 -1.191406 7.128906 -0.738281 6.453125 -0.375 C 5.773438 -0.0195312 5.085938 0.15625 4.390625 0.15625 C 3.804688 0.15625 3.242188 0.046875 2.703125 -0.171875 C 2.171875 -0.398438 1.703125 -0.753906 1.296875 -1.234375 C 0.890625 -1.710938 0.5625 -2.320312 0.3125 -3.0625 C 0.0625 -3.800781 -0.0625 -4.691406 -0.0625 -5.734375 C -0.0625 -7.035156 0.0859375 -8.394531 0.390625 -9.8125 C 0.703125 -11.238281 1.117188 -12.664062 1.640625 -14.09375 C 2.171875 -15.53125 2.789062 -16.945312 3.5 -18.34375 C 4.21875 -19.738281 4.976562 -21.066406 5.78125 -22.328125 C 6.59375 -23.597656 7.4375 -24.769531 8.3125 -25.84375 C 9.195312 -26.925781 10.0625 -27.859375 10.90625 -28.640625 C 11.757812 -29.429688 12.578125 -30.046875 13.359375 -30.484375 C 14.140625 -30.929688 14.851562 -31.15625 15.5 -31.15625 Z M 2.671875 -9.4375 C 3.890625 -10.695312 5.066406 -11.972656 6.203125 -13.265625 C 7.335938 -14.554688 8.398438 -15.832031 9.390625 -17.09375 C 10.378906 -18.351562 11.285156 -19.578125 12.109375 -20.765625 C 12.941406 -21.960938 13.648438 -23.085938 14.234375 -24.140625 C 14.816406 -25.203125 15.269531 -26.164062 15.59375 -27.03125 C 15.925781 -27.90625 16.09375 -28.65625 16.09375 -29.28125 C 16.09375 -29.394531 16.035156 -29.546875 15.921875 -29.734375 C 15.804688 -29.929688 15.671875 -30.03125 15.515625 -30.03125 C 15.078125 -30.03125 14.492188 -29.738281 13.765625 -29.15625 C 13.035156 -28.570312 12.242188 -27.773438 11.390625 -26.765625 C 10.546875 -25.765625 9.671875 -24.59375 8.765625 -23.25 C 7.859375 -21.90625 7.003906 -20.46875 6.203125 -18.9375 C 5.410156 -17.414062 4.695312 -15.84375 4.0625 -14.21875 C 3.4375 -12.59375 2.972656 -11 2.671875 -9.4375 Z M 2.671875 -9.4375 "/></g></g></g></svg>